
<?xml version="1.0" encoding="utf-8"?>
<!-- Generator: Adobe Illustrator 23.1.0, SVG Export Plug-In . SVG Version: 6.00 Build 0)  -->
<svg version="1.1" id="Слой_1" xmlns="http://www.w3.org/2000/svg" xmlns:xlink="http://www.w3.org/1999/xlink" x="0px" y="0px"
   viewBox="0 0 1910.68 1904.28" style="enable-background:new 0 0 1910.68 1904.28;" xml:space="preserve">
<style type="text/css">
  .st0{fill:#1F7EBD;}
  .st1{fill:#F2AA8E;}
</style>
<g>
  <g>
    <path class="st0" d="M1043.39-3978.24c-8.83,4.39-15.29,7.32-21.49,10.73c-204.9,112.73-409.84,225.39-614.61,338.35
      c-44.33,24.45-43.08,23.41-85.68,0.26c-302.09-164.12-604.24-328.13-906.37-492.18c-2.93-1.59-5.96-3.01-8.79-4.76
      c-15.53-9.6-15.7-21.12,0.5-29.95c34.51-18.81,69.4-36.93,104.16-55.28c272.21-143.69,544.43-287.37,816.64-431.06
      c2.36-1.24,4.8-2.35,7.07-3.73c15.78-9.59,30.8-8.43,47.12,0.24c112.95,60.04,226.21,119.5,339.34,179.21
      c192.08,101.39,384.14,202.83,576.2,304.25c4.71,2.49,9.6,4.72,14.04,7.63c12.21,8.03,12.55,18.65,0.94,26.95
      c-3.23,2.31-6.89,4.04-10.4,5.96c-59.6,32.58-119.05,65.44-178.92,97.51c-13.59,7.28-19.83,15.32-19.79,32.1
      c0.65,270.65,0.51,541.31,0.28,811.96c-0.01,11.77,2.78,22,8,32.38c42.8,85.15,85.28,170.45,127.86,255.71
      c0.89,1.79,1.79,3.58,2.65,5.38c12.57,26.06,3.21,41.66-25.57,41.76c-55.33,0.21-110.66,0.04-165.99,0.04
      c-37.33,0-74.66,0.01-112,0.01c-4,0-8.02,0.26-12-0.05c-21.09-1.68-30.93-17.29-21.92-36.2c13.76-28.88,28.36-57.36,42.66-85.97
      c29.79-59.61,59.49-119.27,89.55-178.74c5.25-10.39,7.83-20.74,7.82-32.47c-0.21-259.32-0.16-518.64-0.21-777.97
      C1044.48-3962.49,1043.87-3968.85,1043.39-3978.24z"/>
    <path class="st1" d="M4258.49-4276.61c2.28-45.68,4.56-91.37,6.91-138.48c219.51,0,439.17,0,661.36,0
      c3.15,45.84-0.42,92.26,1.93,138.49c-0.18,32.63-0.54,65.26-0.49,97.88c0.08,60.6,0.4,121.19,0.62,181.79
      c-0.29,6.65-0.82,13.3-0.82,19.95c-0.05,103.32-0.04,206.65-0.04,309.97c0,6.58,0,13.15,0,21.72c28.78,3.55,56.63-0.22,83.81,2.28
      c4.24,14.9,5.91,448.42,2.1,483.58c-13.81,4.6-154.09,5.56-178.32,0.78c0-85.84,0-172.14,0-259.77c-204.42,0-406.66,0-611.1,0
      c0,86.81,0,173.12,0,258.78c-16.17,4.59-145,6-177.03,2.54c-4.34-13.98-5.29-462.62-0.55-486.68c19.27,0,39.38-2.16,58.8,0.58
      c21.5,3.04,32.43-7.91,40.71-23.82c20.85-40.04,39.05-81.2,49.97-125.28c5.73-23.12,13.46-45.79,18.24-69.08
      c6.78-33.04,11.78-66.46,17.32-99.75c1.95-11.73,3.22-23.58,4.79-35.37c1.52-13.07,3.13-26.13,4.55-39.21
      c3.35-30.77,6.88-61.53,9.77-92.35c1.3-13.84,1.08-27.81,1.79-41.71C4254.61-4205.39,4256.58-4241,4258.49-4276.61z
       M4706.36-3996.93c0-65.18,0-130.36,0-195.29c-84.62,0-168.25,0-254.22,0c0,8.43,0.1,15.57-0.02,22.71
      c-0.44,27.3,0.11,54.67-1.73,81.88c-2.05,30.31-6.3,60.47-9.6,90.7c-0.87,12.59-0.17,25.53-2.9,37.7
      c-10.25,45.7-12.6,92.84-26.05,137.95c-5.27,17.67-7.55,36.26-13.3,53.74c-9.7,29.51-20.73,58.59-31.9,87.58
      c-4.57,11.85-10.97,23-16.8,35c119.65,0,237.25,0,356.31,0c0.39-7.54,1-14.01,1.01-20.47c0.06-104.53,0.06-209.05,0.01-313.58
      C4707.18-3984.98,4706.65-3990.95,4706.36-3996.93z"/>
    <path class="st1" d="M2315.45-4276.79c0-45.77,0-91.53,0-138.49c70.49,0,138.06,0,207.18,0c0,42.43,0,84.14,0,130.92
      c10.76-14.71,18.53-25.49,26.47-36.14c34.46-46.26,77.89-81.71,131.09-103.81c24.34-10.11,50.06-16.51,77.31-16.57
      c35.42-0.07,70.38,0.71,104.16,13.03c25.11,9.15,48.06,22.17,69.83,37.46c41.35,29.04,74.26,65.97,101.4,108.33
      c1.41,2.19,3.65,3.85,5.51,5.76c3.12,5.72,6.59,11.29,9.3,17.19c18.46,40.16,37.44,79.91,46.4,123.91
      c8.17,40.11,17.95,79.78,18.21,121.04c0.04,5.79,2.26,11.57,3.47,17.36c0.05,40.64,1.48,81.33-0.22,121.89
      c-1.8,42.96-4.52,86.03-14.31,128.18c-7.32,31.53-12.49,63.86-23.2,94.22c-12.97,36.8-29.78,72.3-52.1,104.93
      c-29.21,42.7-63.91,80.01-106.92,108.62c-17.4,11.58-37.56,19.18-56.85,27.71c-40.27,17.81-82.98,17.76-125.32,13.01
      c-70.7-7.93-123.6-47.62-168.55-99.9c-8.18-9.51-16.4-18.97-28.51-27.78c-0.19,17.37-0.47,34.75-0.56,52.12

Карина Де(д/в)ушка♡, [01.07.2025 21:58]
c-0.1,17.99-0.02,35.98-0.02,53.97c0,17.99,0,35.98,0,53.97s0,35.98,0,53.97s0,35.98,0,53.97s0,35.98,0,53.97
      c0,17.99,0,35.98,0,53.97c0,17.99,0,35.98,0,53.97c0,17.82,0,35.64,0,54.84c-75.11,0-147.92,0-223.28,0c0-9.28,0-17.75,0-26.21
      c0-301.14,0-602.28-0.02-903.42c0-8.65-0.35-17.31-0.54-25.96c0.26-27.8,0.77-55.59,0.73-83.39
      C2316.03-4145.72,2315.69-4211.26,2315.45-4276.79z M2887.38-3996.79c-1.48-11.04-2.97-22.08-4.45-33.12
      c-7.46-55.64-24.64-107.03-63.05-149.81c-21.55-24-47.4-42.1-78.69-47.05c-59.31-9.38-108.32,11.63-145.58,58.91
      c-19.53,24.79-33.56,52.31-41.38,83.12c-7.32,28.85-15.45,57.46-14.69,87.62c-1.2,5.66-3.28,11.29-3.44,16.98
      c-0.47,16.63,0.11,33.29-0.22,49.93c-1.14,58.67,6.34,116,22.33,172.63c12.51,44.3,35.79,81.07,69.29,111.57
      c47.85,43.57,123.75,47.18,175.27,5.43c44.92-36.41,64.43-86.5,76.16-140.43c5.04-23.18,6.88-47.1,9.31-70.78
      C2893.21-3900.12,2893.62-3948.49,2887.38-3996.79z"/>
    <path class="st1" d="M5907.79-3996.79c-0.19,7.98-0.54,15.96-0.54,23.94c-0.03,175.77-0.02,351.53-0.02,527.3
      c0,7.79,0,15.58,0,24.56c-72.57,0-142.71,0-215.27,0c0-8.99,0-16.78,0-24.57c0-175.77,0.01-351.53-0.02-527.3
      c0-7.98-0.34-15.96-0.52-23.94c0.63-14.3,1.26-28.6,1.89-42.9c-1.44-0.34-2.88-0.69-4.32-1.03
      c-7.06,14.61-14.12,29.21-21.18,43.82c-28.83,53.69-57.86,107.28-86.45,161.1c-30.8,57.98-61.11,116.23-91.8,174.27
      c-41.52,78.53-83.19,156.97-124.83,235.44c-0.92,1.73-2.16,3.28-4.19,6.33c-7.12,0-15.05,0-22.98,0
      c-54.66,0-109.31,0.02-163.97-0.01c-25.54-0.01-25.61-0.05-25.61-25.16c-0.02-175.3,0-350.59-0.04-525.89
      c0-8.66-0.35-17.31-0.54-25.97c0.26-26.47,0.77-52.95,0.73-79.42c-0.09-66.86-0.43-133.72-0.67-200.58c0-45.65,0-91.3,0-138.31
      c72.91,0,142.97,0,215.85,0c0.46,46.18,0.92,92.34,1.38,138.5c-0.18,39.29-0.53,78.57-0.49,117.85
      c0.06,53.93,0.42,107.87,0.64,161.8c0,60.16,0,120.33,0,184.52c5.37-8.35,9.14-13.44,12.12-18.96
      c12.55-23.25,25.03-46.54,37.22-69.98c16.46-31.65,32.63-63.45,48.92-95.18c17.49-31.91,35.15-63.73,52.44-95.75
      c21.33-39.49,42.57-79.03,63.42-118.79c11.32-21.58,21.72-43.64,32.54-65.48c20.18-37.2,40.37-74.4,60.52-111.62
      c1.89-3.5,3.65-7.08,5.28-10.71c6.1-13.59,15.65-18.36,31.27-18.07c58.44,1.12,116.91,0.45,175.37,0.45c6.59,0,13.18,0,22.74,0
      c0.36,47.41,0.71,93.57,1.06,139.72c-0.24,57.59-0.62,115.18-0.66,172.77C5907.04-4068.28,5907.53-4032.53,5907.79-3996.79z"/>
    <path class="st1" d="M3755.23-4276.33c5.33-16.93,11.01-33.75,15.9-50.8c7.29-25.44,13.97-51.05,21.07-76.54
      c1.06-3.79,2.98-7.34,4.78-11.67c75,0,149.91,0,226.69,0c-7.98,26.87-15.65,52.13-22.97,77.48
      c-5.86,20.29-11.32,40.71-16.96,61.07c-2.65,7.45-5.61,14.81-7.89,22.37c-10.04,33.35-19.76,66.8-29.85,100.13
      c-12.03,39.72-24.48,79.31-36.4,119.06c-3.77,12.57-6.41,25.47-9.57,38.22c-2.5,5.34-5.76,10.47-7.39,16.07
      c-16.56,56.58-32.48,113.35-49.34,169.84c-11.93,39.96-25.54,79.42-37.49,119.38c-12.5,41.82-23.6,84.05-35.92,125.92
      c-8.79,29.87-18.82,59.37-27.9,89.16c-11.56,37.91-22.7,75.95-34.04,113.93c-9.45,31.66-18.24,63.55-28.54,94.93
      c-15.98,48.72-35.9,95.86-63.98,138.97c-26.43,40.59-62.77,70.85-107.1,89.4c-29.14,12.2-60.22,20.41-92.73,19.75
      c-22.66-0.46-45.42-1.38-67.97,0.23c-29.03,2.08-56.57-6.23-84.84-9.2c-7.96-0.84-11.04-5.68-11.62-13.53
      c-2.44-33.04-4.81-66.09-8.12-99.05c-2.91-28.96-7.1-57.79-10.55-86.69c-0.53-4.45-0.07-9.02-0.07-12.53
      c2.58-1.7,3.76-3.15,4.72-3.02c24.82,3.49,49.51,8.52,74.45,10.43c32.15,2.46,63.26-2.73,91.23-20.58
      c26.24-16.74,43.8-40.28,54.55-69.12c9.24-24.8,18.11-49.74,27.14-74.61c6.8-18.71,2.29-36.63-3.47-54.61
      c-9.29-29.01-18.14-58.15-27.31-87.2c-8.38-26.56-17.04-53.03-25.4-79.6c-16.1-51.2-32.11-102.43-48.11-153.67
      c-13.62-43.64-27.16-87.3-40.76-130.95c-7.88-25.3-15.67-50.63-23.83-75.85c-2-6.19-5.3-11.97-8-17.93
      c-0.89-5.85-1.08-11.91-2.79-17.51c-7.83-25.73-16.19-51.3-24.16-76.99c-14.04-45.27-27.67-90.68-42.03-135.85
      c-5.34-16.81-12.23-33.13-18.41-49.67c-5.49-21.08-10.52-42.29-16.6-63.2c-7.16-24.6-15.24-48.93-23.4-74.91

Карина Де(д/в)ушка♡, [01.07.2025 21:58]
c79.57,0,157.68,0,237.17,0c11.55,43.3,23.06,86.59,34.69,129.85c0.85,3.15,2.54,6.07,3.84,9.1c8.84,32.53,17.53,65.1,26.59,97.57
      c6.57,23.55,13.99,46.87,20.39,70.46c8.32,30.68,15.83,61.58,24.1,92.27c1.85,6.88,5.43,13.29,8.21,19.91
      c5,21.82,9.34,43.83,15.14,65.44c14.91,55.54,30.47,110.91,45.78,166.35c3.21,11.62,6.47,23.23,9.71,34.84
      c1.42-0.09,2.84-0.18,4.26-0.27c3.1-11.84,6.18-23.69,9.29-35.53c8.38-31.8,16.62-63.65,25.22-95.39
      c8.46-31.24,17.56-62.31,25.87-93.6c3.71-13.98,6.17-28.3,9.19-42.46c2.33-3.96,5.64-7.65,6.83-11.93
      c6.88-24.72,13.25-49.58,19.8-74.39c9.91-37.54,20.06-75.01,29.64-112.63C3742.78-4222.46,3748.83-4249.44,3755.23-4276.33z"/>
    <path class="st1" d="M954.56-3452.33c22.86,1.57,40.92,11.93,52.62,31.43c13.12,21.87,13.64,45.06-1.91,65.57
      c-15.61,20.57-32.39,40.66-51.11,58.38c-49.7,47.04-99.85,93.68-151.44,138.63c-65.06,56.7-130.99,112.47-197.97,166.89
      c-41.21,33.49-84.14,65.1-128.08,94.93c-28.47,19.33-59.01,36.7-90.77,49.68c-22.75,9.3-48.93,12.47-73.81,13.74
      c-41.83,2.13-83.86,0.94-125.8,0.44c-22.53-0.27-45.03-2.84-67.56-2.92c-30.71-0.12-60.95,3.59-89.14,17.19
      c-5.34-8.34-9.6-17.67-16.2-24.83c-45.84-49.69-92.24-98.86-138.32-148.33c-23.93-25.69-47.13-52.07-71.46-77.37
      c-23.88-24.84-48.77-48.7-73.22-73c9.42-23.95,18.36-48.1,28.37-71.8c21.33-50.5,51.61-95.05,90.53-133.71
      c2.79-2.77,5.1-6.02,7.63-9.05c3.59-1.64,7.45-2.87,10.74-4.98c31.19-20,64.75-29.5,102.24-27.64
      c38.45,1.91,75.03,7.85,108.63,28.45c18.56,11.38,38.34,21.36,58.65,29.17c39.77,15.3,80.34,28.57,124.08,23.76
      c34.5-3.8,67.72-13.17,100.85-23.17c18.98-5.73,38.31-11.53,57.89-13.73c37.4-4.22,70.9,4.44,94.64,36.97
      c23.36,32.01,29.5,87.76-13.48,118.4c-33.79,24.09-69.59,41.13-108.73,52.83c-12.28,3.67-24.34,8.1-40.11,13.39
      c6.43,3.14,8.86,5.44,10.99,5.18c12.49-1.52,25.07-2.9,37.31-5.69c42.13-9.64,79.62-29.54,115.04-53.66
      c28.04-19.1,55.91-38.45,83.8-57.77c7.1-4.92,14.3-9.79,20.9-15.33c64.32-53.96,130.41-105.58,201.87-149.86
      C863.12-3425.47,905.17-3448.36,954.56-3452.33z"/>
    <path class="st0" d="M954.56-3452.33c-49.4,3.98-91.44,26.86-132.32,52.19c-71.47,44.28-137.55,95.9-201.87,149.86
      c-6.61,5.54-13.8,10.41-20.9,15.33c-27.89,19.32-55.76,38.67-83.8,57.77c-35.41,24.13-72.9,44.03-115.04,53.66
      c-12.24,2.8-24.82,4.17-37.31,5.69c-2.12,0.26-4.56-2.04-10.99-5.18c15.77-5.29,27.83-9.72,40.11-13.39
      c39.14-11.7,74.94-28.74,108.73-52.83c42.97-30.64,36.83-86.39,13.48-118.4c-23.74-32.53-57.24-41.19-94.64-36.97
      c-19.57,2.21-38.91,8.01-57.89,13.73c-33.13,10-66.35,19.37-100.85,23.17c-43.74,4.81-84.32-8.46-124.08-23.76
      c-20.31-7.81-40.09-17.79-58.65-29.17c-33.6-20.6-70.18-26.54-108.63-28.45c-37.49-1.86-71.05,7.65-102.24,27.64
      c-3.29,2.11-7.15,3.34-10.74,4.98c-30.53-17.61-60.78-35.72-91.72-52.6c-13.24-7.22-18.86-16.1-18.8-31.58
      c0.53-125.23,0.3-250.47,0.3-375.7c0-3.33-0.24-6.7,0.19-9.98c1.27-9.63,5.98-12.58,15.2-9.17c4.32,1.6,8.23,4.33,12.32,6.57
      c187.33,102.86,374.83,205.43,561.75,309.03c20.77,11.51,37.06,10.83,57.28-0.37c174.7-96.81,349.85-192.82,524.87-289.06
      c6.41-3.53,12.66-7.49,19.39-10.28c10.05-4.16,15.28-0.97,16.7,9.57c0.53,3.93,0.22,7.98,0.22,11.98
      C954.62-3682.82,954.59-3567.57,954.56-3452.33z"/>
    <path class="st1" d="M6023.45-4276.79c0-45.78,0-91.55,0-138.51c249.08,0,495.2,0,744.28,0c0,46.96,0,92.73,0,138.51
      c-0.52,23.66-1.04,47.31-1.59,72.75c-87.39,0-172.36,0-257.18,0c-0.9,3.69-1.75,5.56-1.75,7.43
      c0.15,66.61,0.37,133.21,0.59,199.82c-0.19,7.99-0.54,15.97-0.54,23.96c-0.03,175.21-0.02,350.42-0.02,525.63
      c0,7.92,0,15.84,0,23.31c-14.96,5.02-194.3,6.14-220,1.31c0-7.19,0-14.98,0-22.78c0-175.21,0.01-350.42-0.04-525.63
      c0-8.64-0.54-17.29-0.82-25.94c0.01-68.86,0.01-137.71,0.01-208.53c-88.26,0-174.36,0-262.93,0
      C6023.45-4230.55,6023.45-4253.67,6023.45-4276.79z"/>
    <path class="st1" d="M2146.62-3989.24c-1.01,11.2-1.37,22.51-3.16,33.59c-5.17,31.89-9.88,63.91-16.74,95.45

Карина Де(д/в)ушка♡, [01.07.2025 21:58]
c-6.89,31.65-14.05,63.52-24.8,93.99c-22.56,63.93-51.24,124.91-92.34,179.69c-30.88,41.16-65.16,78.64-106.74,108.98
      c-44.93,32.78-94.45,56.09-148.62,69.33c-58.12,14.21-116.81,12.63-176.03,9.49c-37.77-2-73.5-11.25-108.68-22.4
      c-26.31-8.34-51.68-21.01-75.77-34.74c-70.73-40.31-121.2-99.98-159.53-171.01c-24.72-45.8-41.84-94.26-56.49-144.03
      c-9.77-33.2-13.13-29.67,22.26-49.2c52.41-28.92,104.84-57.79,157.34-86.56c11.01-6.03,22.33-11.49,35.77-18.37
      c2.32,8.17,5.15,14.75,5.97,21.57c6.6,55.39,24.24,107,52.47,154.99c29.9,50.82,73.59,84.54,129.47,102.56
      c7.49,2.41,15.6,3.86,23.46,3.98c28.54,0.45,57.6,3.6,85.52-0.57c68.73-10.25,115.89-52.19,148.57-111.51
      c28.09-51,45.72-105.61,53.66-163.36c3.24-23.56,7.32-47.01,11.02-70.51c25.93-0.41,51.86-1.07,77.79-1.17
      C2036.2-3989.27,2091.41-3989.2,2146.62-3989.24z"/>
    <path class="st1" d="M1894.96-4280.78c-5.32-51.35-20.7-99.49-43.54-145.8c-18.77-38.05-41.4-72.49-74.61-99.48
      c-36.01-29.28-76.69-45.64-123.08-50.69c-33.9-3.69-66.54,1.45-97.68,11.51c-41.29,13.34-74.82,39.61-100.01,75.72
      c-28.04,40.18-46.72,84.5-59.6,133.85c-5.04-1.26-10.29-1.53-14.51-3.77c-67.01-35.52-133.89-71.3-201.99-107.64
      c0.41-4.93-0.16-10.38,1.4-15.12c24.63-75.21,58.06-145.54,113.49-203.63c42.76-44.81,92.33-79.35,150.17-102.12
      c51.97-20.46,105.51-30.76,161.42-28.64c15.98,0.61,32,0.24,48,0.06c36.06-0.4,71.2,4.05,106.11,14.12
      c37.32,10.76,72.4,25.49,105.74,45.26c52.81,31.31,96.12,72.76,133.38,121.12c26.01,33.75,49.4,69.31,67.18,107.88
      c20.25,43.93,38.29,88.96,49.1,136.42c5.88,25.82,11.81,51.64,16.9,77.62c2.16,11,2.2,22.42,3.21,33.65
      c-63.11,0.26-126.22,0.62-189.33,0.73C1929.46-4279.72,1912.21-4280.42,1894.96-4280.78z"/>
    <path class="st0" d="M1894.96-4280.78c17.25,0.36,34.5,1.05,51.75,1.02c63.11-0.11,126.22-0.47,189.33-0.73
      c6.95,1.23,13.89,3.5,20.84,3.54c52.86,0.3,105.71,0.16,158.57,0.16c0.24,65.54,0.58,131.07,0.67,196.61
      c0.04,27.8-0.47,55.59-0.73,83.39c-47.64,0.02-95.27,0.17-142.91-0.07c-9.59-0.05-18.41,1.06-25.86,7.62
      c-55.21,0.04-110.42-0.03-165.62,0.19c-25.93,0.1-51.86,0.76-77.79,1.17c-35.29-0.35-70.58-0.96-105.87-1
      c-95.93-0.11-191.87,0.03-287.8,0.06c-8.39,0-16.79,0-25.77-2.17c88.69-56.36,184.97-97.85,278.6-150.33
      c-87.86-46.52-172.35-91.27-260.93-138.17c9,0,14.43,0.01,19.86,0c117.25-0.14,234.5-0.27,351.75-0.47
      C1880.34-4279.97,1887.65-4280.49,1894.96-4280.78z"/>
    <path class="st0" d="M6507.79-3996.79c-0.21-66.61-0.44-133.21-0.59-199.82c0-1.87,0.85-3.73,1.75-7.43c84.82,0,169.79,0,257.18,0
      c0.56-25.44,1.07-49.09,1.59-72.75c77.69,0,155.37,0,234.14,0c0,93.62,0,185.2-0.01,276.78c-0.48,0.47-0.92,0.98-1.43,1.4
      c-0.49,0.41-1.06,1.04-1.59,1.04C6835.16-3997.28,6671.47-3997.04,6507.79-3996.79z"/>
    <path class="st0" d="M6023.45-4276.79c0,23.12,0,46.24,0,71.33c88.57,0,174.67,0,262.93,0c0,70.82,0,139.68-0.01,208.53
      c-126.2,0.05-252.39,0.09-378.58,0.14c-0.26-35.74-0.75-71.49-0.73-107.23c0.04-57.59,0.42-115.18,0.66-172.77
      C5946.3-4276.79,5984.87-4276.79,6023.45-4276.79z"/>
    <path class="st0" d="M3900.04-3997.02c3.16-12.75,5.81-25.65,9.57-38.22c11.92-39.75,24.37-79.34,36.4-119.06
      c10.09-33.33,19.8-66.78,29.85-100.13c2.28-7.56,5.24-14.92,7.89-22.37c91.58,0.07,183.17,0.13,274.74,0.2
      c-1.92,35.61-3.88,71.21-5.71,106.83c-0.71,13.9-0.5,27.87-1.79,41.71c-2.89,30.82-6.42,61.57-9.77,92.35
      c-1.42,13.08-3.03,26.14-4.55,39.21c-102.91-0.08-205.83-0.16-308.75-0.25C3918.63-3996.77,3909.34-3996.93,3900.04-3997.02z"/>
    <path class="st0" d="M3755.23-4276.33c-6.39,26.89-12.44,53.87-19.27,80.65c-9.58,37.62-19.74,75.09-29.64,112.63
      c-6.55,24.81-12.93,49.67-19.8,74.39c-1.19,4.28-4.5,7.97-6.84,11.93c-48.15,0.21-96.3,0.42-144.46,0.62
      c-2.78-6.63-6.35-13.04-8.21-19.91c-8.27-30.69-15.78-61.59-24.1-92.27c-6.4-23.6-13.82-46.91-20.39-70.46
      c-9.06-32.47-17.75-65.04-26.59-97.57C3555.7-4276.33,3655.47-4276.33,3755.23-4276.33z"/>
    <path class="st0" d="M5147.45-4276.79c0.24,66.86,0.57,133.72,0.67,200.58c0.04,26.47-0.47,52.95-0.73,79.42

Карина Де(д/в)ушка♡, [01.07.2025 21:58]
c-72.86-0.05-145.73-0.1-218.58-0.14c-0.21-60.59-0.53-121.19-0.61-181.79c-0.04-32.63,0.31-65.25,0.49-97.88
      C5001.61-4276.67,5074.53-4276.73,5147.45-4276.79z"/>
    <path class="st0" d="M3220.25-4277.18c6.18,16.54,13.07,32.86,18.41,49.67c14.35,45.18,27.98,90.58,42.03,135.85
      c7.97,25.69,16.33,51.26,24.16,76.99c1.71,5.6,1.9,11.67,2.79,17.51c-63.95,0.11-127.9,0.23-191.85,0.35
      c-1.21-5.79-3.43-11.57-3.47-17.36c-0.27-41.26-10.04-80.93-18.21-121.04c-8.96-43.99-27.94-83.74-46.4-123.91
      c-2.72-5.91-6.18-11.47-9.3-17.19C3099.01-4276.59,3159.63-4276.88,3220.25-4277.18z"/>
    <path class="st0" d="M5364.83-3996.95c-0.23-53.93-0.59-107.87-0.64-161.8c-0.04-39.28,0.31-78.57,0.49-117.85
      c82.28,0.01,164.55,0.03,246.81,0.04c-10.82,21.84-21.22,43.9-32.54,65.48c-20.84,39.75-42.09,79.29-63.42,118.79
      c-17.29,32.02-34.94,63.84-52.43,95.75C5430.35-3996.67,5397.59-3996.81,5364.83-3996.95z"/>
    <path class="st0" d="M-269.6-3141.9c24.45,24.29,49.34,48.16,73.22,73c24.33,25.3,47.53,51.68,71.46,77.37
      c46.08,49.47,92.48,98.64,138.32,148.33c6.61,7.16,10.86,16.49,16.2,24.83c2.5,26.88-6.24,45.37-26.16,55.32
      c-20.74,10.36-43.17,6.56-61.79-12.69c-32.39-33.48-63.97-67.74-95.79-101.76c-52.74-56.38-105.41-112.81-158.07-169.26
      c-4.99-5.35-10.14-10.64-14.42-16.53c-13.36-18.39-15.58-38.25-3.98-57.99c11.34-19.3,29.49-25.86,51.3-22.85
      C-276.03-3143.69-272.83-3142.66-269.6-3141.9z"/>
    <path class="st0" d="M3831.17-3025.94c0.24,30.42-4.93,59.59-20.42,86.25c-23.67,40.72-64.36,58.46-108.39,47.29
      c-25.37-6.44-42.9-23.15-56.73-44.33c-14.55-22.28-20.95-47.42-23.12-73.46c-2.74-32.98,1.73-65.45,16.41-95.18
      c18.53-37.51,48.62-59.92,92.04-58.12c44.42,1.84,71.54,28.44,88.15,67.28C3828.63-3073.91,3831.49-3050.11,3831.17-3025.94z
       M3651.78-3035.07c1.43,17.26,1.11,31.51,4.16,45c2.88,12.75,7.47,25.87,14.47,36.8c30.09,47.03,91.48,44.72,116.3-5.28
      c21.24-42.79,19.99-87.81,1.86-131.67c-12.01-29.05-37.06-44.54-65.86-42.53c-30.86,2.16-50.33,20.32-60.02,48.16
      C3656.85-3067.83,3654.89-3049.72,3651.78-3035.07z"/>
    <path class="st0" d="M3883.96-3059.43c3.78-3.3,7.61-6.55,11.33-9.91c22.48-20.35,55.53-21.76,78.21-1.5
      c9.15,8.17,17.71,18.83,22.16,30.09c15.98,40.47,14.79,81.12-7.07,119.31c-24.25,42.36-82.92,44.39-109.41,3.63
      c-8.46-13.02-14.57-28.75-17.39-44.04c-7.79-42.23-7.33-84.9-0.44-127.36c7.82-48.18,32.86-69.47,81.35-70.7
      c13.08-0.33,26.07-3.34,39.15-4.62c6.46-0.63,13.03-0.11,19.6-0.11c-1.09,27.84-8.44,35.62-34.32,37.23
      c-13.95,0.86-27.95,1.06-41.89,2.05c-21.27,1.51-34.46,12.87-38.98,33.77c-2.19,10.15-3.77,20.43-5.63,30.65
      C3881.73-3060.45,3882.84-3059.94,3883.96-3059.43z M3885.31-2986.09c2.98,14.09,4.56,28.03,8.99,40.99
      c5.78,16.88,18.26,27.81,36.78,28.97c19.59,1.23,30.93-11.35,37.65-27.32c11.76-27.94,12.57-56.91,2.24-85.57
      c-6.85-19.01-21.55-29.72-38.39-29.71c-17.1,0.01-31.58,10.44-37.89,29.94C3890.26-3015.1,3888.39-3000.57,3885.31-2986.09z"/>
    <path class="st0" d="M6986.17-2908c0,31.55,0,58.49,0,86.31c-9.87,0-17.62,0-26.39,0c0-87.49,0-174.45,0-262.41
      c7.8,0,14.87,0,22.56,0c0.83,5.23,1.62,10.17,2.55,15.98c2.73-1.33,4.72-1.8,6.03-3c30.19-27.78,67.73-22.57,88.8,12.71
      c4.05,6.78,7.6,14.19,9.64,21.78c8.85,32.85,8.85,65.79-1.65,98.34c-4.83,14.97-14.12,27.12-26.39,36.82
      c-19.78,15.62-41.79,16.35-62.91,2.4C6995.73-2900.83,6993.22-2902.83,6986.17-2908z M6983.02-2986.89
      c0.52,7.29,0.71,14.61,1.65,21.85c0.76,5.91,1.95,11.85,3.74,17.54c5.49,17.41,20.37,30.54,35.06,31.47
      c14.55,0.92,29.77-8.7,36.53-26.17c12.22-31.58,12.16-63.85-0.37-95.38c-5.4-13.59-15.88-23.36-31.39-24.55
      c-16.05-1.24-25.7,8.99-33.27,21.39C6984.87-3024.21,6983.28-3005.71,6983.02-2986.89z"/>
    <path class="st0" d="M4038.66-3084.18c8.25,0,15.31,0,22.84,0c0.98,5.77,1.82,10.74,2.79,16.45c2.55-1.33,4.52-1.87,5.84-3.1
      c29.61-27.85,69.44-23.38,88.63,12.04c23.36,43.11,23.02,88.1,2.31,132.26c-4.6,9.8-12.99,18.63-21.53,25.59
      c-18.95,15.45-40.43,15.57-61,2.32c-3.18-2.05-6.23-4.31-12-8.32c-3.17,29.76-0.01,56.74-2.12,84.78c-8.13,0-15.72,0-23.49,0

Карина Де(д/в)ушка♡, [01.07.2025 21:58]
C4036.57-2836.7,4034.76-3021.43,4038.66-3084.18z M4060.33-2986.79c3.36,15.3,5.2,30.61,10.27,44.77
      c5.14,14.38,16.04,24.8,32.49,25.87c16.86,1.09,26.82-9.45,34.58-22.74c1.34-2.29,2.71-4.66,3.5-7.17
      c9.04-28.76,9.53-57.79,0.17-86.37c-5.5-16.78-16.99-29.94-35.88-30.05c-18.23-0.1-29.06,13.45-34.64,28.89
      C4065.51-3018.83,4063.76-3002.79,4060.33-2986.79z"/>
    <path class="st0" d="M4980.49-2894.78c-1.79,0.57-3.62,1.6-5.48,1.66c-5.95,0.22-11.91,0.08-18.93,0.08
      c-2.67-6.8-5.2-13.23-8.17-20.77c-5.08,3.61-9.03,7.01-13.5,9.46c-8.11,4.44-16.16,9.58-24.9,12.2
      c-31.87,9.57-60.93-4.5-69.39-32.67c-10.46-34.83,5.47-66.15,39.28-75.4c15.35-4.2,31.41-5.79,46.82-9.8
      c8.21-2.14,20.44-1.05,21.02-14.01c0.59-12.88-1.55-25.37-14.22-32.97c-22.37-13.43-51.14-4.03-61.05,20.02
      c-1.51,3.66-2.95,7.34-5,12.48c-7.79-1.29-15.4-2.55-22.87-3.79c1.43-30.22,17.12-50.67,43.89-57.87
      c5.74-1.54,11.77-2.46,17.7-2.75c45.55-2.22,69.49,14.04,69.1,62.87c-0.18,21.95,0.03,43.91,0.14,65.87
      c0.06,11.31-0.28,22.67,0.65,33.91C4976.46-2915.82,4978.77-2905.49,4980.49-2894.78z M4948.82-2988.22
      c-17.95,4.06-32.74,7.35-47.51,10.79c-5.79,1.35-11.77,2.4-17.21,4.67c-13.54,5.67-18.85,16.25-17.01,32.25
      c1.53,13.33,10.6,22.21,24.8,24.28c21.37,3.12,44.72-9.68,50.63-29.92C4946.31-2959.13,4946.69-2973.11,4948.82-2988.22z"/>
    <path class="st0" d="M4686.99-3084.64c25.21,0,49.08-0.09,72.94,0.02c44.78,0.21,59.32,48.07,41.59,78.28
      c-2.34,3.99-5.29,7.62-8.52,12.22c12.77,11.21,21.83,24.35,22.54,42.24c1.38,34.48-16.82,55.89-51.02,58.56
      c-9.27,0.72-18.63,0.32-27.95,0.35c-15.94,0.04-31.88,0.01-47.47,0.01C4684.63-2907.6,4683.12-3048.71,4686.99-3084.64z
       M4713.26-2919.22c19.22-0.87,36.62-0.34,53.58-2.83c14.86-2.18,20.83-12.07,20.53-27.37c-0.3-15.39-6.59-24.77-21.73-26.29
      c-16.92-1.7-34.15-0.39-52.38-0.39C4713.26-2957.79,4713.26-2940.15,4713.26-2919.22z M4713.1-3005.32
      c16.89,0,31.56,1.24,45.92-0.35c14.08-1.56,21.42-12.29,21.45-26.72c0.03-14.4-5.49-21.44-20.66-24.48
      c-15.51-3.11-31.15-3.76-46.71-0.06C4713.1-3039.41,4713.1-3023.05,4713.1-3005.32z"/>
    <path class="st0" d="M6453.33-2821.37c-7.93,0-13.8,0-21.83,0c0-23.25,0-46.17,0-71.36c-41.73,0-81.38,0-122.21,0
      c0-64.59,0-126.91,0-190.81c7.72,0,15.89,0,26.09,0c0,53.72,0,107.31,0,162.26c24.84,0,47.73,0,72.64,0c0-53.78,0-107.37,0-162.38
      c10.19,0,18.41,0,28.07,0c0,53.49,0,106.58,0,160.39c6.31,2.17,11.6,3.99,17.24,5.93
      C6453.33-2885.59,6453.33-2854.49,6453.33-2821.37z"/>
    <path class="st0" d="M4306.83-3015.28c2.51-28.47-3.85-40.41-22.27-45.44c-26.39-7.21-40.35,1.3-57.56,36.11
      c-7.09-1.24-14.66-2.57-22.08-3.87c2.86-33.75,20.37-53.84,50.57-59.05c5.88-1.01,11.92-1.47,17.89-1.57
      c42.15-0.69,61.33,17.73,61.99,59.91c0.4,25.31-0.38,50.65,0.37,75.95c0.56,19.12,2.7,38.19,4.25,58.72c-6.28,0-14.46,0-23.64,0
      c-2.22-5.62-4.58-11.61-7.5-19c-4.58,3.09-8.69,6.05-12.98,8.71c-5.65,3.49-11.17,7.38-17.23,9.97
      c-32.7,13.96-66.74,1.47-76.6-27.79c-12.14-36.01,4.44-68.42,40.38-78.05c10.9-2.92,22.22-4.25,33.26-6.73
      C4286-3009.7,4296.19-3012.56,4306.83-3015.28z M4306.74-2987.49c-19.37,4.35-38.2,7.94-56.65,12.92
      c-17.37,4.69-24.86,17.26-22.36,34.54c2.12,14.69,14.3,24.07,31.56,24.07c19.88,0,34.5-9.38,42.83-26.96
      C4308.69-2956.79,4310.18-2971.87,4306.74-2987.49z"/>
    <path class="st0" d="M6182.92-3083.09c0,63.14,0,125.01,0,188.5c-8.09,0-15.63,0-25.88,0c0-43.73,0-87.79,0-131.84
      c-1.43-0.34-2.86-0.68-4.29-1.02c-4.01,7.21-8.23,14.31-12,21.64c-15.82,30.77-31.41,61.65-47.26,92.4
      c-11.23,21.8-11.36,21.73-37.93,18.92c0-62.72,0-125.59,0-189.55c8.07,0,15.73,0,25.7,0c0,44.06,0,87.58,0,131.1
      c1.58,0.51,3.17,1.02,4.75,1.52c3.35-5.93,6.93-11.74,10.02-17.8c16.33-32,32.46-64.11,48.82-96.1
      C6155.93-3086.97,6156.05-3086.91,6182.92-3083.09z"/>
    <path class="st0" d="M6504.56-2980.54c-3.91,32.96,15.21,58.07,34.45,63.32c21.16,5.78,36.71-4.32,53.44-36.47
      c7.64,1.04,15.93,2.18,25.92,3.54c-5.98,28.81-19.72,49.33-47.18,57.55c-28.48,8.52-54.09,2.52-74.56-20.07

Карина Де(д/в)ушка♡, [01.07.2025 21:58]
c-15.56-17.18-20.07-38.64-22.28-60.76c-2.48-24.93,0.28-49.4,10.27-72.38c12.45-28.61,37.37-44.33,65.8-43.27
      c27.77,1.04,51.54,19.54,61.64,49.08c6.28,18.36,9.53,37.33,6.51,59.47C6580.57-2980.54,6542.37-2980.54,6504.56-2980.54z
       M6505.73-3008.99c20.34,3.99,70.47,3.25,83.97-1.25c1.28-32.22-20.88-53.16-42.77-52.54
      C6522.97-3062.11,6505.16-3038.54,6505.73-3008.99z"/>
    <path class="st0" d="M5290.19-2980.03c-38.64,0-75.75,0-112.58,0c-4.91,27.41,7.97,53.07,29.89,61.5
      c22.08,8.48,37.23-0.58,57.19-35.08c7.72,1.08,16.02,2.25,24.37,3.42c-6.42,35.58-26.53,55.98-58.3,60.48
      c-31.14,4.41-60.44-10.43-73.4-40.03c-16.78-38.35-16.26-77.92-0.51-116.46c11.73-28.7,37.24-44.1,65.86-42.84
      c27.85,1.23,50.87,19.99,61.1,49.55C5290.19-3021.06,5293.2-3002.3,5290.19-2980.03z M5177.33-3007.97c28.03,0,56.09,0,84.22,0
      c-1.78-34.63-19.15-56.13-43.38-54.95C5194.71-3061.78,5176.28-3037.49,5177.33-3007.97z"/>
    <path class="st0" d="M5309.02-2893.58c0-8.98,0-16.67,0-24.16c27.4-5.07,27.65-5.07,27.89-33.07c0.32-37.32,0.2-74.65,0.26-111.97
      c0.01-6.59,0-13.17,0-21.05c41.7,0,82.02,0,123.66,0c0,63.29,0,126.12,0,189.82c-8.7,0-16.4,0-25.67,0c0-54.17,0-107.35,0-163.14
      c-23.52-2.23-45.57-1.69-69.09-0.27c-0.45,8.02-1.08,14.48-1.12,20.95c-0.17,30.66-0.13,61.32-0.3,91.98
      c-0.04,6.66-0.33,13.34-1.03,19.96c-2.42,23.03-13.91,33.44-36.67,33.04C5321.16-2891.59,5315.38-2892.8,5309.02-2893.58z"/>
    <path class="st0" d="M5788.03-2893.79c-8.17,0-15.34,0-24.97,0c0-27,0-53.88,0-80.03c-17.9-5-55.87-5.17-74.63-0.57
      c0,26.02,0,52.49,0,80.18c-9.36,0-17.05,0-26.17,0c0-62.5,0-124.88,0-189.07c7.47,0,15.64,0,25.95,0c0,25.14,0,50.85,0,77.76
      c25.08,0,48.08,0,73.4,0c0-26.25,0-51.85,0-78.48c9.94,0,17.6,0,26.41,0C5788.03-3020.51,5788.03-2957.55,5788.03-2893.79z"/>
    <path class="st0" d="M4654.65-2985c-2.09,12.04-3.21,28.9-8.1,44.57c-10.35,33.17-36.75,52.04-68.14,51.3
      c-30.6-0.72-57.53-21.88-66.57-54.23c-8.6-30.78-8.56-62.15,0.26-92.88c9.92-34.54,39.67-55.23,73.36-52.67
      c32.64,2.48,59.54,28.98,65.66,65.47C4652.99-3012.31,4653.24-3000.92,4654.65-2985z M4531.6-2992.3
      c2.29,25.47,5.02,40.37,12.17,52.96c17.58,30.98,55.31,31.98,71.61,0.38c16.77-32.52,15.8-66.94,0.53-100.07
      c-6.8-14.75-19.99-23.64-36.69-23.53c-16.81,0.11-29.64,9.4-35.55,24.66C4538.01-3023.33,4535.49-3007.55,4531.6-2992.3z"/>
    <path class="st0" d="M6680.56-3005.2c25.38,0,47.86,0,72.63,0c0-26.36,0-51.92,0-78.67c9.89,0,17.52,0,26.2,0
      c0,63.23,0,126.17,0,190c-8.06,0-15.19,0-24.75,0c0-27.05,0-53.93,0-82.29c-25.84,0-49.29,0-74.41,0c0,27.31,0,53.72,0,81.64
      c-9.21,0-16.81,0-25.87,0c0-62.59,0-125.42,0-189.42c8.06,0,15.73,0,24.99,0C6680.75-3057.43,6678.69-3031.13,6680.56-3005.2z"/>
    <path class="st0" d="M5502.01-2893.66c0-64.2,0-126.49,0-190.11c8.12,0,15.83,0,25.87,0c0,23.04,0,46.63,0,73.04
      c10.04,0,17.82-0.26,25.57,0.06c9.94,0.41,20.02,0.41,29.77,2.12c30.8,5.39,48.92,27.96,48.1,58.83
      c-0.83,31.05-19.83,53.16-51.37,55.66C5554.87-2892.08,5529.51-2893.66,5502.01-2893.66z M5529.16-2919.1
      c18.17-1.07,34.76-0.76,50.87-3.37c15.58-2.52,23.39-14.4,23.21-30.11c-0.17-15.32-7.1-24.77-22.29-28.88
      c-16.81-4.54-33.82-2.91-51.79-1.52C5529.16-2962.18,5529.16-2942.57,5529.16-2919.1z"/>
    <path class="st0" d="M4365.8-2947.81c8.06-2.07,15.02-3.85,21.58-5.54c6.07,9.88,10.31,19.86,17.23,27.38
      c12.01,13.02,30.84,13.34,43.22,2.55c12.51-10.9,14.72-29.15,5.64-43.55c-5.05-8.01-12.29-11.92-21.39-12.78
      c-5.89-0.55-11.81-0.73-18.69-1.13c-0.55-4.29-1.34-8.08-1.43-11.89c-0.09-3.86,0.51-7.74,0.88-12.55
      c5.77-0.76,10.92-1.31,16.03-2.13c14.25-2.26,21.6-9.81,22.84-23.28c1.39-15.19-4.84-26.28-17.04-30.3
      c-11.54-3.8-23.63,0.56-31.06,11.87c-3.58,5.46-6.2,11.55-9.78,18.37c-7.9-1.57-15.41-3.06-24.12-4.79
      c6.71-26.51,17.67-46.57,44.89-52.3c24.32-5.12,44.89,3.28,57.25,22.66c13.58,21.29,11.8,42.94-6.31,69.33
      c23.73,25.51,29.33,54.89,9.33,84.65c-15.12,22.48-39.35,25.42-64.47,19.97C4384.12-2896.95,4371.12-2913.23,4365.8-2947.81z"/>

Карина Де(д/в)ушка♡, [01.07.2025 21:58]
<path class="st0" d="M5828.9-2894.29c0-64.15,0-126.39,0-189.72c8.6,0,16.32,0,26.26,0c0,23.84,0,47.38,0,73.28
      c9.22,0,16.31-0.22,23.38,0.05c9.94,0.38,19.94,0.51,29.77,1.81c50.96,6.77,58.57,61.52,40.58,89.97
      c-9.3,14.71-22.4,23.48-39.02,24.27C5883.52-2893.37,5857.08-2894.29,5828.9-2894.29z M5855.68-2983.02
      c-0.29,21.89-0.84,42.07,0.31,62.21c16.54,0,30.56,1.13,44.33-0.27c19.02-1.94,29.88-14.32,29.83-31.22
      c-0.05-15.97-10.21-28.2-28.36-30.37C5887.48-2984.38,5872.8-2983.02,5855.68-2983.02z"/>
    <path class="st0" d="M5051.89-2894.59c0-54.64,0-108.27,0-163.56c-17.14,0-32.22,0-48.9,0c0-9.18,0-16.72,0-25.64
      c41.37,0,82.97,0,126.12,0c0,7.53,0,15.07,0,24.77c-15.47,0-31.15,0-48.92,0c0,55.65,0,109.25,0,164.43
      C5070.54-2894.59,5062.96-2894.59,5051.89-2894.59z"/>
    <path class="st0" d="M6856.34-3058.83c-18.48,0-33.59,0-49.77,0c0-9.32,0-16.89,0-25.31c42.78,0,84.46,0,127.1,0
      c0,8.09,0,15.2,0,25.25c-16.08,0-32.16,0-50.27,0c0,56.48,0,110.08,0,164.77c-9.72,0-17.32,0-27.07,0
      C6856.34-2948.49,6856.34-3002.09,6856.34-3058.83z"/>
    <path class="st0" d="M6009.54-2894.08c-8.66,0-16.22,0-24.85,0c0-63.78,0-126.45,0-190.01c8.46,0,16.14,0,24.85,0
      C6009.54-3020.44,6009.54-2957.81,6009.54-2894.08z"/>
    <path class="st0" d="M6076.56-3154.81c5.64,0,10.11,0,15.85,0c1.12,2.09,2.9,4.77,4.07,7.7c3.85,9.67,10.82,14.95,21.23,15.34
      c10.92,0.42,20.14-3.18,23.92-14.08c3.93-11.31,11.18-10.99,20.18-8.56c-2.08,28.35-16.91,44.49-40.68,45.59
      C6099.61-3107.82,6077.17-3123.83,6076.56-3154.81z"/>
    <path class="st0" d="M5667.79-3996.91c7.06-14.61,14.12-29.21,21.18-43.82c1.44,0.34,2.88,0.69,4.32,1.03
      c-0.63,14.3-1.26,28.6-1.89,42.9C5683.53-3996.83,5675.66-3996.87,5667.79-3996.91z"/>
    <path class="st0" d="M4706.36-3996.93c-88.52,0-177.05,0-265.57,0c3.3-30.23,7.55-60.39,9.6-90.7
      c1.84-27.21,1.29-54.58,1.73-81.88c0.12-7.14,0.02-14.28,0.02-22.71c85.96,0,169.6,0,254.22,0
      C4706.36-4127.29,4706.36-4062.11,4706.36-3996.93z"/>
    <path class="st0" d="M2887.38-3996.79c-115.94-0.11-231.88-0.21-347.82-0.32c-0.77-30.16,7.37-58.77,14.68-87.62
      c7.81-30.82,21.85-58.34,41.38-83.12c37.26-47.28,86.27-68.29,145.58-58.91c31.29,4.95,57.14,23.05,78.69,47.05
      c38.41,42.78,55.59,94.17,63.05,149.81C2884.42-4018.87,2885.9-4007.83,2887.38-3996.79z"/>
  </g>
</g>
<g>
  <g>
    <path class="st0" d="M1539.51,1201.82c0,11.69-8.2,26.19-18.23,32.21L973.6,1562.96c-10.02,6.02-26.43,6.02-36.45,0
      l-547.68-328.94c-10.02-6.02-18.23-20.51-18.23-32.21V835.73c0-11.69,8.38-16.64,18.61-10.99l546.91,301.92
      c10.24,5.65,26.99,5.65,37.22,0l546.91-301.92c10.24-5.65,18.61-0.71,18.61,10.99V1201.82z"/>
  </g>
  <g>
    <path class="st0" d="M1633.13,697.43c0-11.69-8.4-16.7-18.68-11.13l-640.38,347.03c-10.28,5.57-27.06,5.5-37.29-0.17L18.6,524.84
      c-10.23-5.66-10.18-14.83,0.12-20.38L936.66,10.08c10.29-5.54,27.14-5.54,37.44,0l917.86,494.38
      c10.29,5.54,10.53,15.03,0.53,21.09l-176.91,107.03c-10,6.05-18.22,20.57-18.26,32.26l-2.62,805.53
      c-0.04,11.69,3.89,29.97,8.74,40.61l121.9,267.86c4.84,10.64-0.76,19.35-12.45,19.35l-297.86-0.03
      c-11.69,0-17.31-8.71-12.48-19.36L1624.03,1511c4.83-10.65,8.79-28.93,8.79-40.62L1633.13,697.43z"/>
  </g>
  <path class="st1" d="M1544.31,1196.08c22.86,1.57,40.92,11.93,52.62,31.43c13.12,21.87,13.64,45.06-1.91,65.57
    c-15.61,20.57-32.39,40.66-51.11,58.38c-49.7,47.04-99.85,93.68-151.44,138.63c-65.06,56.7-130.99,112.47-197.97,166.89
    c-41.21,33.49-84.14,65.1-128.08,94.93c-28.47,19.33-59.01,36.7-90.77,49.68c-22.75,9.3-48.93,12.47-73.81,13.74
    c-41.83,2.13-83.86,0.94-125.8,0.44c-22.53-0.27-45.03-2.84-67.56-2.92c-30.71-0.12-60.95,3.59-89.14,17.19
    c-54.54-46.42-112.27-99.92-170.96-161.2c-49.74-51.93-93.83-102.84-132.76-151.34c7.21-21.56,17.77-50.12,32.89-82.8
    c8-17.29,16.69-37.06,32.11-61.31c28.33-44.54,50.15-65.3,58.42-72.4c9.05-7.77,15.74-12.3,18.37-14.03
    c9.98-6.59,28.67-17.37,54.24-23.42c15.31-3.62,31.26-5.06,48-4.23c38.45,1.91,75.03,7.85,108.63,28.45

Карина Де(д/в)ушка♡, [01.07.2025 21:58]
c18.56,11.38,38.34,21.36,58.65,29.17c39.77,15.3,80.34,28.57,124.08,23.76c34.5-3.8,67.72-13.17,100.85-23.17
    c18.98-5.73,38.31-11.53,57.89-13.73c37.4-4.22,70.9,4.44,94.64,36.97c23.36,32.01,29.5,87.76-13.48,118.4
    c-12.35,8.8-24.96,16.67-37.92,23.67c-5.85,3.17-32.25,17.13-70.81,29.16c-11.85,3.7-27.1,7.92-45.18,11.55
    c12.46,2.16,31.19,4.14,53.37,1.33c37.07-4.7,64.31-19.11,115.04-53.66c28.04-19.1,55.91-38.45,83.8-57.77
    c7.1-4.92,14.3-9.79,20.9-15.33c64.32-53.96,130.41-105.58,201.87-149.86C1452.87,1222.94,1494.92,1200.05,1544.31,1196.08z"/>
  <g>
    
      <rect x="219.39" y="1652.33" transform="matrix(0.7075 0.7067 -0.7067 0.7075 1328.2401 194.0394)" class="st0" width="420.66" height="98.45"/>
    
      <ellipse transform="matrix(0.7067 -0.7075 0.7075 0.7067 -1139.323 951.9035)" class="st0" cx="578.52" cy="1850.2" rx="49.15" ry="51.97"/>
    
      <ellipse transform="matrix(0.7067 -0.7075 0.7075 0.7067 -1016.2716 654.1595)" class="st0" cx="280.91" cy="1552.91" rx="49.15" ry="51.97"/>
  </g>
</g>
</svg>